<mxfile host="Electron" modified="2023-09-26T16:00:34.515Z" agent="Mozilla/5.0 (Windows NT 10.0; Win64; x64) AppleWebKit/537.36 (KHTML, like Gecko) draw.io/21.7.5 Chrome/114.0.5735.289 Electron/25.8.1 Safari/537.36" etag="TstdZTWv_-417qJWdtor" version="21.7.5" type="device">
  <diagram name="Page-1" id="aJSIzucl_8qSW_dhheCq">
    <mxGraphModel dx="1077" dy="627" grid="1" gridSize="10" guides="1" tooltips="1" connect="1" arrows="1" fold="1" page="1" pageScale="1" pageWidth="827" pageHeight="1169" math="0" shadow="0">
      <root>
        <mxCell id="0" />
        <mxCell id="1" parent="0" />
        <mxCell id="RT7BIUxAauIOJAPSAu7a-7" style="rounded=0;orthogonalLoop=1;jettySize=auto;html=1;endArrow=none;endFill=0;" edge="1" parent="1" source="RT7BIUxAauIOJAPSAu7a-1" target="RT7BIUxAauIOJAPSAu7a-4">
          <mxGeometry relative="1" as="geometry" />
        </mxCell>
        <mxCell id="RT7BIUxAauIOJAPSAu7a-1" value="Player" style="shape=umlActor;verticalLabelPosition=bottom;verticalAlign=top;html=1;outlineConnect=0;perimeterSpacing=5;" vertex="1" parent="1">
          <mxGeometry x="270" y="140" width="30" height="60" as="geometry" />
        </mxCell>
        <mxCell id="RT7BIUxAauIOJAPSAu7a-22" style="rounded=0;orthogonalLoop=1;jettySize=auto;html=1;endArrow=block;endFill=0;" edge="1" parent="1" source="RT7BIUxAauIOJAPSAu7a-2" target="RT7BIUxAauIOJAPSAu7a-1">
          <mxGeometry relative="1" as="geometry" />
        </mxCell>
        <mxCell id="RT7BIUxAauIOJAPSAu7a-25" style="rounded=0;orthogonalLoop=1;jettySize=auto;html=1;endArrow=none;endFill=0;" edge="1" parent="1" source="RT7BIUxAauIOJAPSAu7a-2" target="RT7BIUxAauIOJAPSAu7a-24">
          <mxGeometry relative="1" as="geometry" />
        </mxCell>
        <mxCell id="RT7BIUxAauIOJAPSAu7a-2" value="Dealer" style="shape=umlActor;verticalLabelPosition=bottom;verticalAlign=top;html=1;outlineConnect=0;perimeterSpacing=5;" vertex="1" parent="1">
          <mxGeometry x="375" y="140" width="30" height="60" as="geometry" />
        </mxCell>
        <mxCell id="RT7BIUxAauIOJAPSAu7a-29" style="rounded=0;orthogonalLoop=1;jettySize=auto;html=1;endArrow=none;endFill=0;" edge="1" parent="1" source="RT7BIUxAauIOJAPSAu7a-3" target="RT7BIUxAauIOJAPSAu7a-28">
          <mxGeometry relative="1" as="geometry" />
        </mxCell>
        <mxCell id="RT7BIUxAauIOJAPSAu7a-36" style="rounded=0;orthogonalLoop=1;jettySize=auto;html=1;endArrow=none;endFill=0;" edge="1" parent="1" source="RT7BIUxAauIOJAPSAu7a-3" target="RT7BIUxAauIOJAPSAu7a-34">
          <mxGeometry relative="1" as="geometry" />
        </mxCell>
        <mxCell id="RT7BIUxAauIOJAPSAu7a-3" value="Game" style="shape=umlActor;verticalLabelPosition=bottom;verticalAlign=top;html=1;outlineConnect=0;perimeterSpacing=5;" vertex="1" parent="1">
          <mxGeometry x="254" y="470" width="30" height="60" as="geometry" />
        </mxCell>
        <mxCell id="RT7BIUxAauIOJAPSAu7a-4" value="Make a bet" style="ellipse;whiteSpace=wrap;html=1;" vertex="1" parent="1">
          <mxGeometry x="40" y="10" width="120" height="80" as="geometry" />
        </mxCell>
        <mxCell id="RT7BIUxAauIOJAPSAu7a-26" value="" style="rounded=0;orthogonalLoop=1;jettySize=auto;dashed=1;html=1;shadow=0;startArrow=classic;startFill=1;endArrow=none;endFill=0;" edge="1" parent="1" source="RT7BIUxAauIOJAPSAu7a-10" target="RT7BIUxAauIOJAPSAu7a-16">
          <mxGeometry relative="1" as="geometry" />
        </mxCell>
        <mxCell id="RT7BIUxAauIOJAPSAu7a-27" value="include" style="edgeLabel;html=1;align=center;verticalAlign=middle;resizable=0;points=[];" vertex="1" connectable="0" parent="RT7BIUxAauIOJAPSAu7a-26">
          <mxGeometry x="-0.1328" y="1" relative="1" as="geometry">
            <mxPoint x="-7" y="-11" as="offset" />
          </mxGeometry>
        </mxCell>
        <mxCell id="RT7BIUxAauIOJAPSAu7a-10" value="Skip a turn" style="ellipse;whiteSpace=wrap;html=1;" vertex="1" parent="1">
          <mxGeometry x="225" y="280" width="120" height="80" as="geometry" />
        </mxCell>
        <mxCell id="RT7BIUxAauIOJAPSAu7a-11" value="Request a card" style="ellipse;whiteSpace=wrap;html=1;" vertex="1" parent="1">
          <mxGeometry x="40" y="100" width="120" height="80" as="geometry" />
        </mxCell>
        <mxCell id="RT7BIUxAauIOJAPSAu7a-14" style="rounded=0;orthogonalLoop=1;jettySize=auto;html=1;endArrow=none;endFill=0;" edge="1" parent="1" source="RT7BIUxAauIOJAPSAu7a-1" target="RT7BIUxAauIOJAPSAu7a-11">
          <mxGeometry relative="1" as="geometry">
            <mxPoint x="730" y="90" as="sourcePoint" />
            <mxPoint x="470" y="60" as="targetPoint" />
          </mxGeometry>
        </mxCell>
        <mxCell id="RT7BIUxAauIOJAPSAu7a-16" value="End a turn" style="ellipse;whiteSpace=wrap;html=1;" vertex="1" parent="1">
          <mxGeometry x="40" y="280" width="120" height="80" as="geometry" />
        </mxCell>
        <mxCell id="RT7BIUxAauIOJAPSAu7a-17" value="Show cards" style="ellipse;whiteSpace=wrap;html=1;" vertex="1" parent="1">
          <mxGeometry x="40" y="190" width="120" height="80" as="geometry" />
        </mxCell>
        <mxCell id="RT7BIUxAauIOJAPSAu7a-18" style="rounded=0;orthogonalLoop=1;jettySize=auto;html=1;endArrow=none;endFill=0;" edge="1" parent="1" source="RT7BIUxAauIOJAPSAu7a-1" target="RT7BIUxAauIOJAPSAu7a-16">
          <mxGeometry relative="1" as="geometry">
            <mxPoint x="745" y="90" as="sourcePoint" />
            <mxPoint x="470" y="240" as="targetPoint" />
          </mxGeometry>
        </mxCell>
        <mxCell id="RT7BIUxAauIOJAPSAu7a-19" style="rounded=0;orthogonalLoop=1;jettySize=auto;html=1;endArrow=none;endFill=0;" edge="1" parent="1" source="RT7BIUxAauIOJAPSAu7a-1" target="RT7BIUxAauIOJAPSAu7a-17">
          <mxGeometry relative="1" as="geometry">
            <mxPoint x="755" y="100" as="sourcePoint" />
            <mxPoint x="480" y="250" as="targetPoint" />
          </mxGeometry>
        </mxCell>
        <mxCell id="RT7BIUxAauIOJAPSAu7a-24" value="Give a card" style="ellipse;whiteSpace=wrap;html=1;" vertex="1" parent="1">
          <mxGeometry x="460" y="130" width="120" height="80" as="geometry" />
        </mxCell>
        <mxCell id="RT7BIUxAauIOJAPSAu7a-28" value="Request one more game" style="ellipse;whiteSpace=wrap;html=1;" vertex="1" parent="1">
          <mxGeometry x="40" y="400" width="120" height="80" as="geometry" />
        </mxCell>
        <mxCell id="RT7BIUxAauIOJAPSAu7a-30" value="Request player name" style="ellipse;whiteSpace=wrap;html=1;" vertex="1" parent="1">
          <mxGeometry x="40" y="490" width="120" height="80" as="geometry" />
        </mxCell>
        <mxCell id="RT7BIUxAauIOJAPSAu7a-31" style="rounded=0;orthogonalLoop=1;jettySize=auto;html=1;endArrow=none;endFill=0;" edge="1" parent="1" source="RT7BIUxAauIOJAPSAu7a-3" target="RT7BIUxAauIOJAPSAu7a-30">
          <mxGeometry relative="1" as="geometry">
            <mxPoint x="-65" y="459" as="sourcePoint" />
            <mxPoint x="50" y="453" as="targetPoint" />
          </mxGeometry>
        </mxCell>
        <mxCell id="RT7BIUxAauIOJAPSAu7a-32" value="Give a turn" style="ellipse;whiteSpace=wrap;html=1;" vertex="1" parent="1">
          <mxGeometry x="40" y="580" width="120" height="80" as="geometry" />
        </mxCell>
        <mxCell id="RT7BIUxAauIOJAPSAu7a-33" style="rounded=0;orthogonalLoop=1;jettySize=auto;html=1;endArrow=none;endFill=0;" edge="1" parent="1" source="RT7BIUxAauIOJAPSAu7a-3" target="RT7BIUxAauIOJAPSAu7a-32">
          <mxGeometry relative="1" as="geometry">
            <mxPoint x="-65" y="468" as="sourcePoint" />
            <mxPoint x="59" y="519" as="targetPoint" />
          </mxGeometry>
        </mxCell>
        <mxCell id="RT7BIUxAauIOJAPSAu7a-34" value="Show score" style="ellipse;whiteSpace=wrap;html=1;" vertex="1" parent="1">
          <mxGeometry x="380" y="490" width="120" height="80" as="geometry" />
        </mxCell>
        <mxCell id="RT7BIUxAauIOJAPSAu7a-38" value="Show cards" style="ellipse;whiteSpace=wrap;html=1;" vertex="1" parent="1">
          <mxGeometry x="380" y="580" width="120" height="80" as="geometry" />
        </mxCell>
        <mxCell id="RT7BIUxAauIOJAPSAu7a-39" style="rounded=0;orthogonalLoop=1;jettySize=auto;html=1;endArrow=none;endFill=0;" edge="1" parent="1" source="RT7BIUxAauIOJAPSAu7a-3" target="RT7BIUxAauIOJAPSAu7a-38">
          <mxGeometry relative="1" as="geometry">
            <mxPoint x="299" y="524" as="sourcePoint" />
            <mxPoint x="409" y="601" as="targetPoint" />
          </mxGeometry>
        </mxCell>
        <mxCell id="RT7BIUxAauIOJAPSAu7a-40" value="Take a bet" style="ellipse;whiteSpace=wrap;html=1;dashed=1;" vertex="1" parent="1">
          <mxGeometry x="380" y="400" width="120" height="80" as="geometry" />
        </mxCell>
        <mxCell id="RT7BIUxAauIOJAPSAu7a-41" style="rounded=0;orthogonalLoop=1;jettySize=auto;html=1;endArrow=none;endFill=0;" edge="1" parent="1" source="RT7BIUxAauIOJAPSAu7a-3" target="RT7BIUxAauIOJAPSAu7a-40">
          <mxGeometry relative="1" as="geometry">
            <mxPoint x="259" y="524" as="sourcePoint" />
            <mxPoint x="151" y="601" as="targetPoint" />
          </mxGeometry>
        </mxCell>
      </root>
    </mxGraphModel>
  </diagram>
</mxfile>
